<svg width="64" height="64" fill="none" xmlns="http://www.w3.org/2000/svg"><path d="M63.224 35.193c-.357-1.28-.694-2.488-.694-3.592 0-1.103.337-2.312.694-3.591.57-2.036 1.156-4.143.454-6.19-.73-2.13-2.546-3.521-4.303-4.865-1.053-.807-2.048-1.568-2.694-2.406-.656-.855-1.12-1.995-1.61-3.203-.809-1.984-1.644-4.036-3.513-5.325-1.84-1.27-4.135-1.392-6.351-1.509-1.383-.073-2.69-.143-3.786-.48-1.023-.314-2.084-.967-3.205-1.658C36.412 1.261 34.366 0 32 0c-2.367 0-4.413 1.261-6.217 2.376-1.122.69-2.18 1.345-3.204 1.658-1.097.337-2.404.407-3.787.48-2.218.118-4.51.239-6.351 1.508-1.87 1.289-2.704 3.34-3.513 5.324-.492 1.208-.957 2.35-1.614 3.204-.645.841-1.64 1.602-2.693 2.41-1.756 1.345-3.57 2.735-4.299 4.861-.702 2.049-.115 4.154.452 6.192.358 1.279.695 2.486.695 3.59 0 1.103-.337 2.312-.695 3.591C.206 37.23-.38 39.337.321 41.387c.73 2.127 2.545 3.519 4.3 4.862 1.054.805 2.048 1.568 2.692 2.406.658.855 1.123 1.995 1.614 3.204.809 1.984 1.645 4.037 3.516 5.328 1.838 1.267 4.132 1.388 6.348 1.505 1.383.073 2.69.143 3.785.48 1.024.314 2.083.967 3.203 1.657 1.805 1.111 3.852 2.374 6.22 2.374s4.415-1.263 6.223-2.376c1.12-.69 2.177-1.342 3.202-1.657 1.095-.337 2.403-.407 3.786-.48 2.217-.116 4.51-.237 6.348-1.504 1.874-1.291 2.708-3.347 3.517-5.332.49-1.207.954-2.347 1.608-3.199.645-.838 1.64-1.6 2.693-2.406 1.757-1.345 3.573-2.735 4.303-4.864.703-2.05.114-4.154-.455-6.192zm-2.181 5.312c-.46 1.343-1.876 2.426-3.373 3.572-1.147.88-2.336 1.789-3.204 2.916-.88 1.148-1.437 2.514-1.975 3.837-.686 1.687-1.334 3.28-2.526 4.101-1.189.82-2.993.914-4.904 1.014-1.493.079-3.039.16-4.466.6-1.365.421-2.628 1.198-3.848 1.95-1.635 1.009-3.178 1.96-4.748 1.96-1.571 0-3.112-.951-4.747-1.96-1.219-.751-2.48-1.529-3.847-1.95-1.427-.439-2.973-.521-4.466-.6-1.911-.1-3.717-.196-4.903-1.014-1.191-.821-1.841-2.414-2.527-4.1-.538-1.323-1.096-2.69-1.978-3.838-.867-1.127-2.055-2.037-3.204-2.917-1.496-1.146-2.91-2.227-3.37-3.571-.43-1.252.023-2.87.5-4.583.39-1.4.793-2.845.793-4.322 0-1.477-.404-2.921-.793-4.321-.479-1.712-.93-3.33-.5-4.581.46-1.344 1.873-2.425 3.369-3.57 1.149-.882 2.338-1.793 3.203-2.92.885-1.15 1.442-2.518 1.982-3.84.684-1.687 1.332-3.278 2.522-4.097 1.188-.82 2.995-.915 4.908-1.015 1.491-.08 3.037-.16 4.463-.6 1.367-.42 2.63-1.2 3.852-1.953 1.632-1.004 3.173-1.955 4.743-1.955 1.569 0 3.112.95 4.745 1.958 1.221.754 2.483 1.532 3.85 1.952 1.427.439 2.971.52 4.464.6 1.913.1 3.718.197 4.907 1.016 1.19.822 1.839 2.413 2.523 4.096.54 1.324 1.095 2.692 1.98 3.84.866 1.127 2.055 2.036 3.202 2.916 1.497 1.147 2.912 2.23 3.373 3.576.43 1.25-.024 2.866-.501 4.578-.391 1.4-.795 2.846-.795 4.323 0 1.477.403 2.922.795 4.32.478 1.713.93 3.33.5 4.582z" fill="#fff"/><path d="M31.999 10.99c-11.507 0-20.868 9.246-20.868 20.61 0 11.365 9.361 20.61 20.868 20.61 11.506 0 20.868-9.245 20.868-20.61 0-11.364-9.362-20.61-20.868-20.61zm0 38.472c-9.972 0-18.086-8.013-18.086-17.862 0-9.848 8.114-17.861 18.086-17.861 5.143 0 9.78 2.142 13.077 5.558L31.818 37.723l-7.183-7.094a1.402 1.402 0 00-1.967 0 1.36 1.36 0 000 1.943l8.347 8.244a1.395 1.395 0 001.1.397 1.39 1.39 0 001.018-.573L46.9 21.503a17.598 17.598 0 013.183 10.098c0 9.848-8.113 17.861-18.085 17.861z" fill="#fff"/></svg>