<svg width="92" height="60" fill="none" xmlns="http://www.w3.org/2000/svg"><path d="M85.7 25.436l-2.33-9.825c.636-.143 1.114-.739 1.114-1.452v-1.584c0-3.44-2.655-6.238-5.918-6.238H67.95V3.069C67.95 1.377 66.644 0 65.038 0H10.925C9.319 0 8.012 1.377 8.012 3.07V30c0 .82.631 1.485 1.41 1.485.778 0 1.409-.664 1.409-1.485V3.07c0-.055.042-.1.094-.1h54.113c.051 0 .093.045.093.1V30c0 .82.631 1.486 1.41 1.486.778 0 1.409-.665 1.409-1.485v-1.684h16.63c2.045.002 3.782 1.417 4.379 3.366h-4.382c-.778 0-1.41.665-1.41 1.486v3.168c0 2.566 1.982 4.653 4.416 4.653h1.597v6.535h-3.684c-1.21-3.683-4.533-6.337-8.435-6.337-3.901 0-7.224 2.654-8.434 6.337h-.678V36.337c0-.82-.631-1.485-1.41-1.485-.778 0-1.409.665-1.409 1.485v11.188H35.894c-1.21-3.684-4.533-6.337-8.435-6.337-3.901 0-7.224 2.653-8.434 6.337h-8.1a.096.096 0 01-.094-.1v-3.267h6.106c.779 0 1.41-.665 1.41-1.485 0-.82-.631-1.485-1.41-1.485H3.41c-.778 0-1.409.665-1.409 1.485 0 .82.63 1.485 1.41 1.485h4.603v3.268c0 1.692 1.306 3.07 2.912 3.07h7.612l-.002.098c0 5.187 4.003 9.406 8.924 9.406 4.921 0 8.925-4.22 8.925-9.406l-.002-.099H68.14l-.002.1c0 5.186 4.003 9.405 8.924 9.405 4.921 0 8.925-4.22 8.925-9.406l-.002-.099h4.606c.778 0 1.409-.665 1.409-1.485V33.168c0-3.91-2.738-7.16-6.3-7.732zM67.95 9.307h10.616c1.71 0 3.1 1.466 3.1 3.268v.099H67.95V9.306zm0 16.04v-9.703h12.522l2.302 9.703H67.95zM27.46 57.03c-3.368 0-6.107-2.887-6.107-6.436 0-3.548 2.74-6.435 6.106-6.435 3.367 0 6.107 2.887 6.107 6.435 0 3.55-2.74 6.436-6.107 6.436zm49.603 0c-3.367 0-6.107-2.887-6.107-6.436 0-3.548 2.74-6.435 6.107-6.435s6.106 2.887 6.106 6.435c0 3.55-2.74 6.436-6.106 6.436zm12.119-19.01h-1.597c-.88 0-1.597-.755-1.597-1.683v-1.683h3.194v3.366z" fill="#fff"/><path d="M27.5 48a2.503 2.503 0 00-2.5 2.5c0 1.379 1.121 2.5 2.5 2.5s2.5-1.121 2.5-2.5-1.121-2.5-2.5-2.5zm49.603 0a2.503 2.503 0 00-2.5 2.5c0 1.379 1.122 2.5 2.5 2.5 1.38 0 2.5-1.121 2.5-2.5s-1.12-2.5-2.5-2.5zm-42.65-11H13.41c-.778 0-1.409.679-1.409 1.516 0 .838.63 1.516 1.41 1.516h21.043c.778 0 1.41-.678 1.41-1.516 0-.837-.632-1.516-1.41-1.516zm-15.006-4H1.409C.631 33 0 33.679 0 34.516c0 .838.63 1.516 1.41 1.516h18.037c.778 0 1.41-.678 1.41-1.516 0-.837-.632-1.516-1.41-1.516zm31.556-18.001a1.34 1.34 0 00-1.993 0L36.478 28.482l-6.52-7.014a1.34 1.34 0 00-1.992 0 1.598 1.598 0 000 2.144l7.516 8.086c.275.296.636.444.996.444s.721-.148.996-.444l13.529-14.555a1.6 1.6 0 000-2.144z" fill="#fff"/></svg>