<svg width="74" height="78" fill="none" xmlns="http://www.w3.org/2000/svg"><path d="M22.315 13.563c-.625 0-1.132.545-1.132 1.218 0 1.476-1.117 2.678-2.49 2.678-1.372 0-2.488-1.201-2.488-2.678 0-1.477 1.116-2.678 2.489-2.678.625 0 1.131-.545 1.131-1.218 0-.672-.506-1.217-1.131-1.217-2.62 0-4.752 2.294-4.752 5.113 0 2.819 2.132 5.112 4.752 5.112 2.62 0 4.752-2.293 4.752-5.112 0-.673-.507-1.218-1.131-1.218zm0 14.283c-.625 0-1.132.546-1.132 1.218 0 1.477-1.117 2.678-2.49 2.678-1.372 0-2.488-1.201-2.488-2.678 0-1.477 1.116-2.678 2.489-2.678.625 0 1.131-.545 1.131-1.218 0-.672-.506-1.217-1.131-1.217-2.62 0-4.752 2.294-4.752 5.113 0 2.819 2.132 5.112 4.752 5.112 2.62 0 4.752-2.293 4.752-5.112 0-.672-.507-1.218-1.131-1.218zm18.372 3.462h-8.449c-.624 0-1.131.545-1.131 1.217 0 .673.506 1.218 1.131 1.218h8.449c.624 0 1.131-.545 1.131-1.218 0-.672-.506-1.217-1.131-1.217zm0-5.194h-8.449c-.624 0-1.131.545-1.131 1.217 0 .673.506 1.218 1.131 1.218h8.449c.624 0 1.131-.545 1.131-1.218 0-.672-.506-1.217-1.131-1.217zM38.273 45.59h-6.035c-.624 0-1.131.546-1.131 1.218 0 .673.506 1.218 1.131 1.218h6.035c.625 0 1.131-.545 1.131-1.218 0-.672-.506-1.217-1.131-1.217zm2.414-5.193h-8.449c-.624 0-1.131.545-1.131 1.218 0 .672.506 1.217 1.131 1.217h8.449c.624 0 1.131-.545 1.131-1.218 0-.672-.506-1.217-1.131-1.217zm10.861-23.372h-19.31c-.624 0-1.131.545-1.131 1.217s.506 1.217 1.131 1.217h19.31c.625 0 1.132-.545 1.132-1.217s-.507-1.217-1.132-1.217zM46.72 11.83H32.239c-.624 0-1.131.546-1.131 1.218 0 .672.506 1.217 1.131 1.217h14.483c.625 0 1.131-.545 1.131-1.217s-.506-1.217-1.131-1.217zm-24.405 30.3c-.625 0-1.132.545-1.132 1.217 0 1.477-1.117 2.678-2.49 2.678-1.372 0-2.488-1.201-2.488-2.678 0-1.477 1.116-2.678 2.489-2.678.625 0 1.131-.545 1.131-1.217 0-.673-.506-1.218-1.131-1.218-2.62 0-4.752 2.294-4.752 5.113 0 2.819 2.132 5.113 4.752 5.113 2.62 0 4.752-2.294 4.752-5.113 0-.672-.507-1.217-1.131-1.217z" fill="#fff"/><path d="M58.487 0H4.651C2.087 0 0 1.711 0 3.814V58.35c0 2.103 2.086 3.814 4.651 3.814H31.57c.82 0 1.485-.545 1.485-1.217s-.665-1.218-1.485-1.218H4.651c-.927 0-1.682-.618-1.682-1.38V3.815c0-.76.755-1.38 1.682-1.38h53.836c.928 0 1.682.62 1.682 1.38v40.253c0 .672.665 1.217 1.485 1.217.82 0 1.484-.545 1.484-1.217V3.814C63.138 1.711 61.052 0 58.487 0z" fill="#fff"/><path d="M70.276 49.365a3.965 3.965 0 00-2.935.887c-.662-1.196-1.792-2.045-3.1-2.186a3.966 3.966 0 00-2.934.888c-.663-1.197-1.793-2.045-3.1-2.186a3.928 3.928 0 00-2.31.466V31.73c0-1.258-.497-2.465-1.366-3.31a3.983 3.983 0 00-3.206-1.13c-2.089.225-3.725 2.257-3.725 4.626v15.541l-3.326 3.579c-1.767 1.901-2.48 4.6-1.908 7.217L44.89 69.8c1.023 4.679 4.857 7.946 9.325 7.946H64.42c5.282 0 9.58-4.623 9.58-10.306V53.99c0-2.369-1.637-4.4-3.725-4.625zm1.461 18.074c0 4.34-3.282 7.872-7.316 7.872H54.216c-3.412 0-6.341-2.496-7.123-6.069l-2.525-11.546c-.391-1.791.097-3.637 1.306-4.938L47.6 50.9v4.203c0 .672.506 1.217 1.131 1.217s1.132-.545 1.132-1.217V31.916c0-1.133.741-2.1 1.687-2.203a1.791 1.791 0 011.463.513c.395.385.622.933.622 1.506v21.424c0 .672.506 1.218 1.131 1.218s1.132-.545 1.132-1.218V51.21c0-.573.226-1.121.62-1.506.4-.389.92-.572 1.464-.513.946.102 1.687 1.07 1.687 2.204v3.06c0 .673.507 1.218 1.132 1.218.624 0 1.131-.545 1.131-1.218v-1.947c0-.572.226-1.121.621-1.505.4-.39.92-.572 1.463-.514.946.102 1.688 1.07 1.688 2.204v3.06c0 .673.506 1.218 1.131 1.218s1.132-.545 1.132-1.217v-1.948c0-.572.226-1.12.62-1.505.4-.39.92-.572 1.464-.513.946.102 1.687 1.07 1.687 2.203v13.45z" fill="#fff"/></svg>