<svg width="67" height="66" fill="none" xmlns="http://www.w3.org/2000/svg"><path d="M66.188 36.696c-.374-1.334-.727-2.595-.727-3.745s.353-2.411.727-3.745c.596-2.123 1.21-4.32.475-6.454-.763-2.22-2.666-3.672-4.505-5.073-1.102-.841-2.144-1.635-2.82-2.509-.687-.89-1.174-2.08-1.686-3.34-.846-2.068-1.72-4.208-3.678-5.552-1.925-1.324-4.328-1.451-6.648-1.573-1.448-.076-2.817-.15-3.963-.5-1.072-.328-2.182-1.009-3.356-1.73C38.118 1.316 35.977 0 33.5 0c-2.478 0-4.62 1.315-6.509 2.477-1.174.72-2.28 1.403-3.354 1.73-1.148.35-2.517.423-3.964.5-2.322.122-4.722.249-6.649 1.572-1.957 1.344-2.831 3.483-3.677 5.552-.516 1.26-1.002 2.45-1.69 3.34-.676.878-1.717 1.671-2.82 2.514C3 19.087 1.1 20.535.337 22.753c-.735 2.136-.12 4.331.474 6.456.374 1.334.726 2.593.726 3.743s-.352 2.411-.726 3.745C.215 38.82-.4 41.017.336 43.154c.763 2.218 2.664 3.67 4.502 5.07 1.103.84 2.144 1.635 2.818 2.509.69.89 1.176 2.08 1.69 3.34.846 2.07 1.721 4.21 3.68 5.556 1.924 1.321 4.326 1.448 6.646 1.57 1.447.075 2.816.148 3.962.5 1.072.327 2.18 1.008 3.353 1.727 1.89 1.159 4.033 2.476 6.512 2.476 2.479 0 4.622-1.317 6.514-2.477 1.173-.72 2.28-1.4 3.353-1.728 1.146-.351 2.515-.424 3.963-.5 2.321-.122 4.721-.248 6.645-1.569 1.962-1.347 2.836-3.49 3.682-5.56.514-1.258 1-2.447 1.684-3.335.676-.874 1.717-1.67 2.82-2.509 1.839-1.402 3.74-2.852 4.504-5.071.736-2.138.12-4.333-.476-6.457zm-2.284 5.538c-.482 1.401-1.963 2.53-3.53 3.725-1.202.917-2.446 1.865-3.354 3.04-.922 1.198-1.505 2.622-2.069 4.002-.718 1.759-1.396 3.42-2.644 4.276-1.244.854-3.133.953-5.134 1.057-1.563.082-3.181.167-4.675.625-1.429.44-2.751 1.25-4.029 2.034-1.711 1.052-3.326 2.043-4.97 2.043-1.645 0-3.258-.991-4.97-2.043-1.276-.783-2.596-1.594-4.027-2.034-1.494-.457-3.112-.543-4.675-.625-2-.104-3.891-.205-5.134-1.057-1.246-.857-1.926-2.517-2.644-4.275-.564-1.38-1.148-2.805-2.071-4.003-.908-1.175-2.152-2.123-3.355-3.041-1.565-1.195-3.045-2.322-3.527-3.724-.45-1.305.023-2.992.523-4.778.408-1.46.83-2.967.83-4.507 0-1.54-.422-3.045-.83-4.505-.501-1.785-.973-3.472-.523-4.777.482-1.4 1.96-2.528 3.526-3.723 1.203-.918 2.448-1.868 3.354-3.044.926-1.198 1.509-2.625 2.074-4.005.717-1.758 1.395-3.417 2.64-4.27 1.244-.856 3.136-.955 5.139-1.06 1.561-.082 3.18-.167 4.672-.625 1.431-.439 2.754-1.251 4.033-2.036 1.708-1.047 3.322-2.039 4.965-2.039 1.642 0 3.258.992 4.967 2.042 1.28.786 2.6 1.597 4.032 2.036 1.492.457 3.11.541 4.672.624 2.002.105 3.893.207 5.137 1.06 1.246.857 1.925 2.516 2.642 4.271.565 1.381 1.146 2.807 2.072 4.004.907 1.175 2.151 2.123 3.353 3.04 1.567 1.197 3.048 2.326 3.53 3.73.45 1.302-.025 2.988-.524 4.773-.41 1.46-.832 2.967-.832 4.507 0 1.54.421 3.047.832 4.506.5 1.785.974 3.471.524 4.776z" fill="#fff"/><path d="M33.501 10.008c-12.883 0-23.326 10.274-23.326 22.946C10.175 45.627 20.618 55.9 33.5 55.9c12.883 0 23.327-10.273 23.327-22.946-.015-12.667-10.45-22.932-23.327-22.946zm0 43.706c-11.656 0-21.105-9.294-21.105-20.76 0-11.466 9.449-20.76 21.105-20.76s21.105 9.294 21.105 20.76c-.013 11.46-9.455 20.748-21.105 20.76z" fill="#fff"/><path d="M22.718 42.015l19.994-19.668 1.571 1.545L24.29 43.561l-1.57-1.546zm17.448-6.875c-2.454 0-4.443 1.956-4.443 4.37s1.989 4.37 4.443 4.37c2.454 0 4.443-1.956 4.443-4.37s-1.99-4.37-4.443-4.37zm0 6.555c-1.227 0-2.222-.978-2.222-2.185s.995-2.185 2.222-2.185c1.227 0 2.221.978 2.221 2.185s-.994 2.185-2.221 2.185zM26.837 30.768c2.453 0 4.443-1.956 4.443-4.37s-1.99-4.37-4.443-4.37c-2.455 0-4.443 1.956-4.443 4.37s1.988 4.37 4.443 4.37zm0-6.555c1.227 0 2.221.978 2.221 2.185s-.994 2.185-2.221 2.185-2.222-.978-2.222-2.185.995-2.185 2.222-2.185z" fill="#fff"/></svg>