<svg width="32" height="34" fill="none" xmlns="http://www.w3.org/2000/svg"><path fill-rule="evenodd" clip-rule="evenodd" d="M4.652 2.25H0V.75h4.652a2.75 2.75 0 012.716 2.317l.629 3.952h21.715a1.75 1.75 0 011.696 2.183l-1.901 7.434a3.75 3.75 0 01-3.633 2.821H9.977l.41 2.581a1.25 1.25 0 001.235 1.054h16.581v1.5H11.622a2.75 2.75 0 01-2.716-2.318l-3.02-18.97A1.25 1.25 0 004.653 2.25zm5.086 15.707h16.136a2.25 2.25 0 002.18-1.692l1.9-7.434a.25.25 0 00-.242-.312H8.236l1.502 9.438zm3.832 13.869c.748 0 1.449-.646 1.449-1.56 0-.915-.7-1.56-1.45-1.56-.748 0-1.449.645-1.449 1.56 0 .914.7 1.56 1.45 1.56zm0 1.5c1.628 0 2.949-1.37 2.949-3.06s-1.32-3.06-2.95-3.06c-1.628 0-2.949 1.37-2.949 3.06s1.32 3.06 2.95 3.06zm12.977-1.5c.748 0 1.449-.646 1.449-1.56 0-.915-.7-1.56-1.45-1.56-.748 0-1.449.645-1.449 1.56 0 .914.7 1.56 1.45 1.56zm0 1.5c1.628 0 2.949-1.37 2.949-3.06s-1.32-3.06-2.95-3.06c-1.628 0-2.949 1.37-2.949 3.06s1.32 3.06 2.95 3.06z" fill="#000"/></svg>