<svg width="26" height="25" fill="none" xmlns="http://www.w3.org/2000/svg"><path d="M25.956 12.527l-.022.012-3.73-9.284h1.702a.553.553 0 000-1.105h-10.4V.553a.553.553 0 00-1.106 0v1.591H2.006a.553.553 0 000 1.105H3.78L.044 12.528a.553.553 0 00-.044.204 4.595 4.595 0 109.19 0 .553.553 0 00-.044-.204l-3.73-9.284H12.4V20.33c-2.635.2-4.697 1.802-4.697 3.741 0 .306.248.553.553.553h9.394a.553.553 0 00.553-.553c0-1.94-2.061-3.542-4.697-3.74V3.243h7.056l-3.708 9.284a.554.554 0 00-.044.204 4.595 4.595 0 109.19 0 .554.554 0 00-.044-.204zM4.592 16.23a3.493 3.493 0 01-3.443-2.934h6.864a3.493 3.493 0 01-3.42 2.934zm3.222-4.04H1.382l3.221-8.018 3.21 8.018zm9.184 11.329H8.902c.41-1.188 2.095-2.106 4.046-2.106 1.95 0 3.641.918 4.05 2.106zM21.38 4.178l3.21 8.012h-6.43l3.221-8.012zm0 12.052v.005a3.492 3.492 0 01-3.42-2.94h6.863a3.493 3.493 0 01-3.443 2.935z" fill="#000"/></svg>6 20.5292 13.5056 20.3303V3.24378H20.5624L16.8544 12.5275C16.8268 12.5922 16.8118 12.6617 16.8102 12.732C16.8102 15.2697 18.8674 17.3269 21.4051 17.3269C23.9428 17.3269 26 15.2697 26 12.732C25.9984 12.6617 25.9834 12.5922 25.9558 12.5275ZM4.59214 16.23C2.88058 16.2276 1.42295 14.9852 1.14942 13.2956H8.01275C7.74059 14.977 6.29533 16.2168 4.59214 16.23ZM7.81382 12.1904H1.38151L4.60319 4.17216L7.81382 12.1904ZM16.9981 23.5188H8.90244C9.31137 22.3307 10.9968 21.4134 12.9475 21.4134C14.8982 21.4134 16.5892 22.3307 16.9981 23.5188ZM21.3802 4.17768L24.5909 12.1904H18.1586L21.3802 4.17768ZM21.3802 16.23V16.2355C19.6752 16.2219 18.2294 14.9792 17.9596 13.2956H24.823C24.5494 14.9852 23.0918 16.2276 21.3802 16.23Z" fill="black"/>
</svg>
