<svg width="26" height="25" fill="none" xmlns="http://www.w3.org/2000/svg"><path d="M25.956 12.527l-.022.012-3.73-9.284h1.702a.553.553 0 000-1.105h-10.4V.553a.553.553 0 00-1.106 0v1.591H2.006a.553.553 0 000 1.105H3.78L.044 12.528a.553.553 0 00-.044.204 4.595 4.595 0 109.19 0 .553.553 0 00-.044-.204l-3.73-9.284H12.4V20.33c-2.635.2-4.697 1.802-4.697 3.741 0 .306.248.553.553.553h9.394a.553.553 0 00.553-.553c0-1.94-2.061-3.542-4.697-3.74V3.243h7.056l-3.708 9.284a.554.554 0 00-.044.204 4.595 4.595 0 109.19 0 .554.554 0 00-.044-.204zM4.592 16.23a3.493 3.493 0 01-3.443-2.934h6.864a3.493 3.493 0 01-3.42 2.934zm3.222-4.04H1.382l3.221-8.018 3.21 8.018zm9.184 11.329H8.902c.41-1.188 2.095-2.106 4.046-2.106 1.95 0 3.641.918 4.05 2.106zM21.38 4.178l3.21 8.012h-6.43l3.221-8.012zm0 12.052v.005a3.492 3.492 0 01-3.42-2.94h6.863a3.493 3.493 0 01-3.443 2.935z" fill="#000"/></svg>