<svg width="15" height="16" fill="none" xmlns="http://www.w3.org/2000/svg"><path d="M14.614 11.68L12.75 9.71a1.271 1.271 0 00-1.865 0l-.848.895a.963.963 0 01-1.412 0L4.95 6.724a1.096 1.096 0 010-1.491l.847-.895c.512-.54.52-1.42 0-1.969L3.933.407A1.271 1.271 0 002.07.406l-.68.71c-1.853 1.958-1.853 5.143 0 7.1l5.822 6.148c1.858 1.962 4.866 1.962 6.724 0l.678-.716a1.449 1.449 0 000-1.968zM2.69 1.063c.172-.18.45-.18.622 0l1.865 1.963a.482.482 0 010 .656l-.311.328L2.38 1.387l.31-.324zm5.143 12.645l-5.82-6.149C.577 6.045.498 3.668 1.77 2.054l2.477 2.615A2.061 2.061 0 004.33 7.38l3.674 3.882c.705.744 1.83.775 2.568.086l2.478 2.616c-1.524 1.34-3.771 1.269-5.216-.256zm6.16-.716l-.311.328-2.486-2.625.31-.328c.172-.18.45-.18.622 0l1.865 1.969a.483.483 0 010 .656z" fill="#fff"/></svg>