<svg width="18" height="13" fill="none" xmlns="http://www.w3.org/2000/svg"><path fill-rule="evenodd" clip-rule="evenodd" d="M8.1 6.95L.7 1.4l.6-.8 7.4 5.55a.5.5 0 00.6 0L16.7.6l.6.8-7.4 5.55a1.5 1.5 0 01-1.8 0z" fill="#fff"/><path fill-rule="evenodd" clip-rule="evenodd" d="M16 1H2a1 1 0 00-1 1v9a1 1 0 001 1h14a1 1 0 001-1V2a1 1 0 00-1-1zM2 0a2 2 0 00-2 2v9a2 2 0 002 2h14a2 2 0 002-2V2a2 2 0 00-2-2H2z" fill="#fff"/></svg>1H2C1.44772 1 1 1.44772 1 2V11C1 11.5523 1.44772 12 2 12H16C16.5523 12 17 11.5523 17 11V2C17 1.44772 16.5523 1 16 1ZM2 0C0.895431 0 0 0.89543 0 2V11C0 12.1046 0.89543 13 2 13H16C17.1046 13 18 12.1046 18 11V2C18 0.895431 17.1046 0 16 0H2Z" fill="white"/>
</svg>
