<svg width="11" height="17" fill="none" xmlns="http://www.w3.org/2000/svg"><path d="M5.5 0C2.467 0 0 2.6 0 5.797c0 1.08.284 2.134.821 3.049l4.366 7.416a.454.454 0 00.39.228h.003a.454.454 0 00.39-.234l4.254-7.488A6.029 6.029 0 0011 5.798C11 2.6 8.533 0 5.5 0zm3.938 8.272l-3.869 6.807L1.6 8.337a5.02 5.02 0 01-.69-2.54C.91 3.133 2.974.96 5.5.96c2.527 0 4.586 2.173 4.586 4.837 0 .874-.226 1.73-.648 2.475z" fill="#fff"/><path d="M5.5 2.443a3.058 3.058 0 00-3.055 3.054A3.05 3.05 0 005.5 8.551a3.05 3.05 0 003.056-3.054A3.058 3.058 0 005.5 2.443zm0 5.097a2.045 2.045 0 01-2.044-2.043A2.05 2.05 0 015.5 3.455c1.123 0 2.04.92 2.04 2.042A2.04 2.04 0 015.5 7.54z" fill="#fff"/></svg>