<svg width="16" height="16" fill="none" xmlns="http://www.w3.org/2000/svg"><path fill-rule="evenodd" clip-rule="evenodd" d="M8 15A7 7 0 108 1a7 7 0 000 14zm0 1A8 8 0 108 0a8 8 0 000 16z" fill="#fff"/><path d="M8 4.5a.5.5 0 00-1 0v4a.5.5 0 001 0v-4z" fill="#fff"/><path d="M7.5 8a.5.5 0 000 1h3a.5.5 0 000-1h-3z" fill="#fff"/></svg>0 12.4183 3.58172 16 8 16Z" fill="white"/>
<path d="M8 4.5C8 4.22386 7.77614 4 7.5 4C7.22386 4 7 4.22386 7 4.5V8.5C7 8.77614 7.22386 9 7.5 9C7.77614 9 8 8.77614 8 8.5V4.5Z" fill="white"/>
<path d="M7.5 8C7.22386 8 7 8.22386 7 8.5C7 8.77614 7.22386 9 7.5 9L10.5 9C10.7761 9 11 8.77614 11 8.5C11 8.22386 10.7761 8 10.5 8L7.5 8Z" fill="white"/>
</svg>
