<svg width="190" height="43" fill="none" xmlns="http://www.w3.org/2000/svg"><path fill-rule="evenodd" clip-rule="evenodd" d="M95.918 38.354s1.126-.546 3.101-1.28c1.018.486 3.248 1.5 5.408 2.124 2.924.844 4.872.715 7.601.715 2.728 0 6.625-.455 6.625-.455s-.584-2.144-.649-3.703c-.065-1.559-.065-1.819-.065-1.819s-.585 2.21-.455 3.378c.13 1.17.13 1.56.13 1.56s-5.132.52-8.769.13c-3.638-.39-5.847-.78-7.406-1.3a62.705 62.705 0 00-2.241-.697 63.055 63.055 0 0112.245-3.135c9.094-1.365 7.275-.91 7.275-.91s.195-.39 1.364-.52c1.17-.13 13.122-.714 16.825-.454 3.703.26 13.901.78 15.395 1.754 1.494.974 2.079 1.948 1.624 4.352-.454 2.403-1.364 4.742-2.208 4.222-.845-.52-3.703-2.728-6.431-3.118-2.728-.39-5.717-.325-6.951 0s-3.313 1.624-4.287 1.3c-.975-.325-2.923-2.144-4.482-1.495-1.559.65-1.624.845-2.339 1.754-.714.91-1.689 1.95-2.468.975-.78-.975-2.209-1.43-3.443-1.495-1.235-.064-2.339.325-2.664.65-.325.325-.779.974-.779.974s-2.014-.519-4.353-.26c-2.338.26-6.365.456-9.094-.064-2.728-.52-8.51-3.183-8.51-3.183zm24.554.78s2.599-.456 3.573.259c.975.715 1.169 1.3 2.923-.13 1.754-1.43 2.858-2.469 4.807-1.43 1.949 1.04 2.859 1.69 4.742.715 1.884-.974 5.977-2.013 9.42-.584 3.442 1.429 6.106 3.703 6.625 2.273.52-1.429.78-2.988-1.883-3.572-2.664-.585-6.626-1.235-10.264-.65-3.638.585-4.287 2.273-5.781 1.819-1.495-.455-3.118-1.819-4.937-1.105-1.819.715-3.378 2.924-4.872 2.21-1.494-.715-2.534-1.365-3.443-.91-.91.454-.91 1.104-.91 1.104z" fill="#1F1C21"/><path d="M1.522.343v9.66h.445c.034-.554.12-1.114.262-1.673a10.22 10.22 0 01.537-1.627c.217-.514.468-.982.753-1.405.28-.416.588-.753.914-1.016.24-.2.548-.388.93-.57.383-.184.84-.332 1.371-.446.537-.12 1.148-.177 1.844-.183h7.262L.562 24.116l.069.206h22.095v-11.1h-.445a22.411 22.411 0 01-.189 1.914 15.474 15.474 0 01-.4 1.884 9.22 9.22 0 01-.673 1.701 5.33 5.33 0 01-1 1.353c-.496.463-1.021.8-1.57 1.017a6.283 6.283 0 01-1.655.41c-.548.063-1.073.086-1.57.08H7.687L22.897.548l-.17-.205H1.521zm28.09 20.142c.005.28-.006.565-.04.862a3.044 3.044 0 01-.229.88 2.25 2.25 0 01-.588.793 2.711 2.711 0 01-.868.486c-.32.114-.65.194-.993.24a13.51 13.51 0 01-.982.097l-.582.034v.445h24.047V13.908h-.445l-.102 1.062a19.67 19.67 0 01-.235 1.696 7.09 7.09 0 01-.525 1.644c-.24.537-.594 1.028-1.056 1.49a4.882 4.882 0 01-.628.525c-.275.2-.622.395-1.05.583a7.46 7.46 0 01-1.542.48c-.6.125-1.296.188-2.09.193h-7.845V4.18c-.005-.2.006-.45.04-.748a3.64 3.64 0 01.229-.925c.126-.32.32-.604.588-.862a2.42 2.42 0 01.856-.485 5.174 5.174 0 011.017-.24 13.2 13.2 0 01.97-.097l.583-.034V.343H25.33v.445l.582.034c.303.017.628.052.977.097.342.046.679.126 1.01.24.325.108.611.268.856.485.268.258.468.543.588.863.12.32.2.628.229.924.034.297.045.548.04.748v16.306zM62.017 0L54.55 18.019c-.251.588-.48 1.09-.685 1.501a25.63 25.63 0 01-.537 1.028c-.154.268-.285.486-.388.657a7.735 7.735 0 01-.45.656 5.5 5.5 0 01-.72.77 4.725 4.725 0 01-1.034.698 4.82 4.82 0 01-1.393.445l-.65.103v.445H60.99v-.445l-.856-.069a6.594 6.594 0 01-1.08-.171 4.329 4.329 0 01-1.084-.423 2.542 2.542 0 01-.85-.742 2.386 2.386 0 01-.383-.913 3.746 3.746 0 01-.057-1.08c.028-.364.108-.707.234-1.021l1.302-3.186h8.77l1.54 3.768c.092.211.166.44.235.69.068.258.102.503.108.749-.006.508-.103.913-.297 1.21a1.798 1.798 0 01-.73.674 2.212 2.212 0 01-.56.222c-.217.057-.48.11-.8.149-.319.04-.713.074-1.175.108l-.514.035v.445H78.22v-.445l-.548-.034a5.405 5.405 0 01-1.199-.206 5.612 5.612 0 01-1.085-.423 3.686 3.686 0 01-.833-.57 3.71 3.71 0 01-.577-.783 13.16 13.16 0 01-.628-1.29c-.228-.53-.514-1.21-.85-2.038L64.93 0h-2.912zm4.111 13.874h-7.057l3.494-8.427h.069l3.494 8.427zM88.567 3.083h2.535c.2-.006.451.006.754.029.302.023.627.068.981.148.355.074.708.194 1.062.354.36.166.691.388 1.005.668.286.263.543.611.777 1.05.228.44.434.926.605 1.457.177.536.32 1.079.428 1.627.108.548.177 1.067.211 1.553h.446V.343H75.515v9.626h.446c.034-.486.108-1.005.217-1.553.102-.548.245-1.09.422-1.627a8.968 8.968 0 01.61-1.456c.23-.44.486-.788.772-1.051.314-.28.645-.502 1.004-.668.355-.16.709-.28 1.063-.354.353-.08.68-.125.982-.148a7.48 7.48 0 01.753-.029h2.535v17.402c.006.2-.005.451-.04.748a3.634 3.634 0 01-.228.925c-.12.314-.32.605-.588.862a2.547 2.547 0 01-.857.486 5.633 5.633 0 01-1.01.24c-.349.045-.674.073-.977.097l-.582.034v.445h12.812v-.445l-.583-.034a17.101 17.101 0 01-.97-.098 5.571 5.571 0 01-1.016-.24 2.541 2.541 0 01-.857-.485 2.456 2.456 0 01-.588-.862 3.62 3.62 0 01-.228-.925 5.379 5.379 0 01-.04-.748V3.083zM132.21.343h-10.277l-6.406 16.272h-.103L109.018.343H98.33v.445l.583.034c.302.017.627.052.976.097.342.046.679.126 1.01.24.326.108.611.268.857.485.268.258.468.543.588.863.119.32.199.628.228.924.034.297.046.548.04.748V19.8c.006.263-.011.582-.045.96a5.246 5.246 0 01-.24 1.141c-.12.383-.314.708-.571.983a2.61 2.61 0 01-.845.53c-.337.137-.686.24-1.04.308a6.67 6.67 0 01-.958.12l-.583.035v.445h11.544v-.445l-.582-.034a6.67 6.67 0 01-.959-.12 5.566 5.566 0 01-1.039-.309 2.6 2.6 0 01-.845-.53 2.24 2.24 0 01-.48-.743 4 4 0 01-.257-.88 8.124 8.124 0 01-.102-.833 14.324 14.324 0 01-.018-.628V3.666h.103l8.153 20.656h1.576l8.153-20.656h.103v16.82c.005.2-.006.45-.04.747a3.424 3.424 0 01-.229.925 2.37 2.37 0 01-.588.862 2.543 2.543 0 01-.856.486 5.62 5.62 0 01-1.011.24c-.348.045-.673.073-.976.097l-.582.034v.445h12.812v-.445l-.583-.034a17.233 17.233 0 01-.971-.098 5.415 5.415 0 01-1.01-.24 2.506 2.506 0 01-.862-.485 2.447 2.447 0 01-.588-.862c-.12-.32-.2-.628-.229-.925a6.42 6.42 0 01-.039-.748V4.18c-.006-.2.011-.45.039-.748.029-.296.109-.605.229-.925.126-.32.319-.604.588-.862.245-.217.531-.377.862-.485a5.027 5.027 0 011.01-.24c.343-.045.669-.08.971-.097l.583-.034V.343zM144.781 0l-7.467 18.019c-.251.588-.48 1.09-.685 1.501a25.63 25.63 0 01-.537 1.028c-.154.268-.286.486-.388.657a7.895 7.895 0 01-.451.656 5.495 5.495 0 01-.72.77 4.722 4.722 0 01-1.033.698 4.82 4.82 0 01-1.393.445l-.651.103v.445h12.298v-.445l-.857-.069a6.611 6.611 0 01-1.079-.171 4.339 4.339 0 01-1.085-.423 2.548 2.548 0 01-.85-.742 2.385 2.385 0 01-.382-.913 3.76 3.76 0 01-.058-1.08c.029-.364.109-.707.235-1.021l1.301-3.186h8.77l1.541 3.768c.092.211.166.44.234.69.069.258.103.503.109.749-.006.508-.103.913-.297 1.21a1.794 1.794 0 01-.731.674 2.194 2.194 0 01-.559.222c-.217.057-.48.11-.8.149-.319.04-.713.074-1.176.108l-.514.035v.445h13.429v-.445l-.548-.034a5.391 5.391 0 01-1.199-.206 5.61 5.61 0 01-1.085-.423 3.695 3.695 0 01-.834-.57 3.752 3.752 0 01-.576-.783 13.05 13.05 0 01-.628-1.29c-.229-.53-.514-1.21-.851-2.038L147.694 0h-2.913zm4.112 13.874h-7.057l3.494-8.427h.068l3.495 8.427zM159.752.343v.445l.651.137c.416.097.845.28 1.284.542.44.263.862.565 1.267.914.406.348.766.696 1.08 1.045l7.913 8.804-6.68 7.776a7.06 7.06 0 01-.485.52 25.651 25.651 0 01-1.37 1.261c-.217.189-.4.337-.543.445a9.464 9.464 0 01-1.747 1.017c-.622.28-1.239.49-1.85.628v.445h13.463v-.445l-.822-.069c-.645-.057-1.142-.131-1.496-.217a13.1 13.1 0 01-.697-.194 2.945 2.945 0 01-.69-.36 1.737 1.737 0 01-.537-.576c-.137-.234-.206-.526-.211-.88a2.1 2.1 0 01.217-.844 5.15 5.15 0 01.468-.822c.177-.252.325-.452.445-.595l4.351-5.07 4.693 5.173c.245.263.474.537.691.817.216.285.399.57.536.868.137.29.206.588.211.885-.005.336-.097.616-.279.839a1.976 1.976 0 01-.714.53 4.174 4.174 0 01-1.084.344 8.92 8.92 0 01-1.211.137l-.993.034v.445H190v-.445a6.187 6.187 0 01-2.638-.993 11.427 11.427 0 01-1.804-1.57 60.977 60.977 0 01-1.827-2.028l-7.297-8.153 4.625-5.343c.331-.383.68-.789 1.045-1.223.371-.434.765-.856 1.187-1.267a9.22 9.22 0 011.365-1.108 9.168 9.168 0 011.005-.559 9.555 9.555 0 011.164-.457 7.06 7.06 0 011.188-.285l.685-.103V.343h-13.771v.445l.856.069c.629.05 1.143.142 1.542.268.4.126.708.28.925.45.252.19.434.395.537.623.103.234.154.491.149.782a2.878 2.878 0 01-.149.92 3.046 3.046 0 01-.343.708 4.963 4.963 0 01-.399.53l-3.426 4.009-4.864-5.413c-.183-.206-.314-.388-.383-.548a1.034 1.034 0 01-.097-.445c-.006-.263.057-.52.2-.771.137-.252.388-.474.759-.668a3.86 3.86 0 01.622-.217c.24-.063.486-.114.731-.154a8.44 8.44 0 01.668-.074l.788-.069V.343h-13.291zM.492 35.612c.147-.092.31-.176.487-.255a3.41 3.41 0 01.563-.187c.2-.049.401-.072.605-.074.283 0 .531.049.743.145.213.097.377.238.496.424.117.188.178.416.18.686a1.198 1.198 0 01-.145.57 1.464 1.464 0 01-.397.46 1.902 1.902 0 01-.592.311 2.382 2.382 0 01-.731.114h-.458v.774h.47c.203 0 .406.014.61.045.204.03.398.08.582.15a1.8 1.8 0 01.489.282c.143.117.256.262.338.434.084.172.125.378.127.614 0 .291-.07.55-.209.774-.14.227-.344.403-.612.532-.27.127-.596.194-.986.196a3.424 3.424 0 01-.656-.071 4.093 4.093 0 01-.616-.176 3.476 3.476 0 01-.51-.235l-.27.798c.308.18.64.313.993.395a4.635 4.635 0 001.924.039c.28-.055.54-.139.782-.254a2.37 2.37 0 00.643-.444c.186-.182.33-.396.436-.648a2.27 2.27 0 00.16-.87 1.974 1.974 0 00-.262-.994 1.894 1.894 0 00-.684-.676 2.494 2.494 0 00-.989-.314v-.022c.309-.073.584-.2.828-.38.245-.18.441-.403.583-.67a1.89 1.89 0 00.22-.886c-.004-.41-.102-.758-.298-1.045a1.863 1.863 0 00-.813-.66c-.348-.153-.75-.23-1.212-.23a4 4 0 00-1.168.165c-.343.11-.65.252-.92.432l.27.751zm6.358-1.209v3.333c.003.318-.004.647-.02.983a9.66 9.66 0 01-.087.975 4.262 4.262 0 01-.21.853 1.666 1.666 0 01-.375.614 1.62 1.62 0 01-.833.422l.13.821c.154-.001.304-.02.455-.056a2.555 2.555 0 00.764-.32c.22-.152.401-.345.548-.578a3.21 3.21 0 00.346-.791c.086-.296.15-.61.191-.941.044-.335.07-.674.083-1.024.013-.35.02-.697.017-1.041V35.26h2.605v7.05h1.032v-7.907H6.85zm10.5 5.42l.845 2.487h1.09l-2.698-7.907h-1.22L12.67 42.31h1.056l.82-2.486h2.805zm-2.593-.797l.774-2.288c.082-.242.155-.483.218-.725.064-.24.125-.477.181-.706h.024c.056.227.12.462.184.7.064.238.14.485.226.743l.787 2.276h-2.394zm7.19 3.284h1.033v-7.038h2.417v-.869h-5.853v.869h2.404v7.038zm7.52-8.047c-.53.002-1.018.1-1.462.295a3.376 3.376 0 00-1.16.839 3.865 3.865 0 00-.762 1.31 5.114 5.114 0 00-.276 1.71c.002.599.088 1.144.26 1.637.173.491.415.915.73 1.271.315.356.69.63 1.124.823.434.192.913.29 1.44.291a3.83 3.83 0 001.158-.174 3.333 3.333 0 001.803-1.354 4 4 0 00.524-1.162c.123-.44.186-.932.188-1.474a5.053 5.053 0 00-.253-1.62 3.686 3.686 0 00-.717-1.27 3.169 3.169 0 00-1.124-.827 3.616 3.616 0 00-1.473-.295zm-.035.833a2.199 2.199 0 011.623.679c.202.21.37.453.503.727.133.273.232.567.299.875.064.311.098.626.098.945 0 .452-.057.876-.169 1.271a3.357 3.357 0 01-.49 1.044 2.38 2.38 0 01-.796.71c-.315.17-.675.256-1.08.26a2.31 2.31 0 01-.885-.17 2.27 2.27 0 01-.706-.472 2.758 2.758 0 01-.516-.706 3.64 3.64 0 01-.319-.88 4.823 4.823 0 01-.006-1.993c.067-.321.169-.622.305-.9.135-.276.305-.518.509-.727.203-.208.442-.37.713-.486.272-.117.577-.175.917-.177zm4.059-.693l2.628 5.35a.732.732 0 01.084.245.443.443 0 01-.049.236 4.151 4.151 0 01-.237.448c-.093.156-.203.3-.33.438a1.623 1.623 0 01-.434.332c-.163.084-.346.13-.548.131a2.43 2.43 0 01-.224-.008 1.097 1.097 0 01-.163-.027l-.094.833c.065.023.143.041.235.053.094.011.207.017.34.017.35 0 .673-.082.966-.244.293-.164.567-.407.817-.73.141-.183.278-.39.409-.625.133-.235.26-.483.383-.747.124-.264.243-.534.356-.808.115-.275.225-.545.33-.81l1.666-4.084h-1.08l-1.242 3.356-.259.772c-.078.233-.152.45-.223.647h-.035a39.643 39.643 0 00-.563-1.384l-1.571-3.39H33.49zm12.294 6.84a2.846 2.846 0 01-.477.174 4.638 4.638 0 01-1.2.154c-.64-.003-1.185-.133-1.635-.39a2.56 2.56 0 01-1.032-1.1c-.239-.473-.359-1.036-.36-1.689.001-.52.076-.981.22-1.386.147-.403.357-.745.626-1.023.272-.28.597-.49.974-.635.38-.145.8-.217 1.265-.217.33.002.63.033.897.094.269.06.497.139.686.234l.259-.833c-.09-.048-.221-.1-.391-.154a4.27 4.27 0 00-.626-.137 5.862 5.862 0 00-.86-.06 4.616 4.616 0 00-1.68.299 3.78 3.78 0 00-1.304.845 3.76 3.76 0 00-.845 1.31 4.676 4.676 0 00-.3 1.698c.003.652.101 1.226.294 1.727.194.498.466.917.818 1.255.35.34.76.596 1.233.77.472.172.988.26 1.55.26a7.27 7.27 0 00.887-.054 5.45 5.45 0 00.712-.14 2.57 2.57 0 00.488-.181l-.2-.821zm2.99 1.067h1.033v-7.038h2.417v-.869h-5.854v.869h2.405v7.038zm7.52-8.047a3.62 3.62 0 00-1.462.295c-.446.196-.83.475-1.16.839a3.863 3.863 0 00-.762 1.31 5.114 5.114 0 00-.276 1.71c.002.599.088 1.144.26 1.637.172.491.415.915.73 1.271.315.356.69.63 1.124.823.434.192.913.29 1.44.291.405 0 .792-.058 1.158-.174a3.336 3.336 0 001.803-1.354 4 4 0 00.524-1.162c.123-.44.186-.932.187-1.474a5.037 5.037 0 00-.252-1.62 3.68 3.68 0 00-.717-1.27 3.172 3.172 0 00-1.124-.827 3.618 3.618 0 00-1.473-.295zm-.035.833a2.194 2.194 0 011.623.679c.202.21.37.453.503.727.133.273.232.567.298.875.065.311.099.626.099.945 0 .452-.057.876-.169 1.271a3.36 3.36 0 01-.49 1.044 2.38 2.38 0 01-.796.71c-.315.17-.675.256-1.08.26a2.31 2.31 0 01-.885-.17 2.27 2.27 0 01-.706-.472 2.764 2.764 0 01-.516-.706 3.64 3.64 0 01-.319-.88 4.54 4.54 0 01-.107-.987c0-.346.033-.682.101-1.005.067-.322.169-.623.305-.9.136-.277.305-.52.509-.728.203-.208.442-.37.714-.486.271-.117.576-.175.916-.177zm4.927 7.19c.17.024.389.046.655.065.266.018.577.028.929.03.645 0 1.193-.059 1.642-.18.452-.121.812-.307 1.08-.559a2.061 2.061 0 00.68-1.584 2.025 2.025 0 00-.149-.779 1.865 1.865 0 00-.385-.58 2.274 2.274 0 00-1.097-.612v-.035c.276-.1.512-.236.712-.409.199-.172.353-.37.461-.598a1.71 1.71 0 00.164-.73 1.818 1.818 0 00-.18-.816 1.628 1.628 0 00-.488-.579 2.052 2.052 0 00-.545-.327 3.143 3.143 0 00-.706-.187 5.93 5.93 0 00-.908-.061 9.915 9.915 0 00-1.34.084 5.368 5.368 0 00-.525.092v7.766zm1.02-7.084c.08-.02.192-.035.337-.05.144-.013.334-.02.567-.02.346-.003.649.042.905.13.259.088.46.227.602.419.143.189.216.436.217.74 0 .257-.068.486-.203.687a1.36 1.36 0 01-.582.473c-.252.117-.558.176-.915.178h-.927v-2.557zm0 3.32h.845c.282 0 .544.029.79.088.245.058.461.15.65.273.187.123.334.281.44.475.105.192.16.423.161.688a1.5 1.5 0 01-.168.725 1.29 1.29 0 01-.45.476 2.041 2.041 0 01-.648.258c-.243.053-.497.08-.763.078-.181 0-.344-.004-.485-.01a3.43 3.43 0 01-.371-.037v-3.015zm10.652 2.72a2.85 2.85 0 01-.476.175 4.635 4.635 0 01-1.2.154c-.64-.003-1.186-.133-1.636-.39a2.556 2.556 0 01-1.032-1.1c-.238-.473-.358-1.036-.36-1.689.002-.52.076-.981.221-1.386.147-.403.356-.745.626-1.023.271-.28.596-.49.974-.635a3.509 3.509 0 011.265-.217c.33.002.63.033.897.094.268.06.497.139.686.234l.258-.833a2.4 2.4 0 00-.391-.154c-.17-.053-.379-.1-.625-.137a5.861 5.861 0 00-.86-.06 4.617 4.617 0 00-1.68.299c-.505.198-.939.48-1.305.845a3.76 3.76 0 00-.844 1.31 4.676 4.676 0 00-.301 1.698c.004.652.102 1.226.295 1.727.194.498.465.917.818 1.255.35.34.76.596 1.233.77.472.172.987.26 1.549.26.322-.001.617-.02.888-.054a5.56 5.56 0 00.711-.14 2.59 2.59 0 00.489-.181l-.2-.821zm1.49-6.839v7.907h1.02v-3.625h.33c.331 0 .617.044.855.128.237.086.44.205.607.361.165.155.306.34.422.556.117.215.22.453.309.715l.223.64c.074.218.152.431.234.641.082.207.172.403.27.584h1.091a10.795 10.795 0 01-.31-.713 28.076 28.076 0 01-.273-.743c-.09-.254-.185-.514-.285-.785a5.656 5.656 0 00-.33-.744 2.713 2.713 0 00-.436-.61 2.124 2.124 0 00-.607-.444 2.722 2.722 0 00-.844-.242l2.991-3.626h-1.22l-2.71 3.508h-.317v-3.508h-1.02zm6.358 0v7.907h1.09l2.476-3.941c.274-.436.536-.878.79-1.326.254-.447.481-.889.676-1.326l.035.013c-.026.33-.046.66-.06.99-.014.333-.021.68-.027 1.042-.004.364-.006.757-.006 1.181v3.367h.962v-7.907h-1.02l-2.558 4.071a41.32 41.32 0 00-.798 1.353 20.58 20.58 0 00-.657 1.263l-.035-.011a52.952 52.952 0 00.094-3.343v-3.333h-.962zm11.802 3.356h-3.062V35.26h3.25v-.857h-4.283v7.907h4.458v-.856h-3.425v-2.85h3.062v-.845zm66.331-3.356v7.907h1.032v-3.706h3.825v3.706h1.032v-7.907h-1.032v3.309h-3.825v-3.309h-1.032zm10.851-.14a3.62 3.62 0 00-1.463.295 3.37 3.37 0 00-1.159.839 3.855 3.855 0 00-.763 1.31 5.106 5.106 0 00-.275 1.71c.002.599.088 1.144.26 1.637.172.491.414.915.729 1.271.315.356.69.63 1.124.823.434.192.913.29 1.441.291.405 0 .792-.058 1.158-.174a3.348 3.348 0 001.802-1.355c.225-.334.402-.72.524-1.161.123-.44.186-.932.188-1.474a5.064 5.064 0 00-.252-1.62 3.68 3.68 0 00-.718-1.27 3.168 3.168 0 00-1.124-.827 3.613 3.613 0 00-1.472-.295zm-.036.833a2.2 2.2 0 011.624.679c.201.21.369.453.502.727.133.273.233.567.299.875.064.311.098.626.098.945 0 .452-.057.876-.168 1.271a3.354 3.354 0 01-.491 1.044 2.377 2.377 0 01-.796.71 2.28 2.28 0 01-1.079.26 2.302 2.302 0 01-.885-.17 2.26 2.26 0 01-.706-.472 2.754 2.754 0 01-.517-.706 3.627 3.627 0 01-.318-.88 4.81 4.81 0 01-.006-1.993 3.77 3.77 0 01.304-.9 2.83 2.83 0 01.509-.727c.203-.208.442-.37.714-.486.272-.117.576-.175.916-.177zm4.294-.693l2.792 3.638a2.472 2.472 0 00-.796.224 1.973 1.973 0 00-.578.43 2.865 2.865 0 00-.423.614 5.995 5.995 0 00-.326.773 40.36 40.36 0 00-.246.745c-.079.25-.163.498-.251.747a8.67 8.67 0 01-.301.736h1.044c.086-.177.164-.375.239-.59.072-.215.143-.43.209-.65.066-.218.131-.424.197-.613a6.52 6.52 0 01.297-.733c.108-.218.235-.403.384-.557.148-.155.332-.274.551-.357.217-.081.483-.125.798-.125h.364v3.625h.985v-3.625h.352c.315 0 .58.044.799.125.217.083.401.202.55.357.149.154.275.34.383.557.105.219.206.461.297.733.063.19.126.395.192.614.064.218.134.434.207.649.074.215.157.413.246.59h1.044a8.894 8.894 0 01-.289-.736 23.387 23.387 0 01-.242-.751 25.756 25.756 0 00-.243-.754 5.799 5.799 0 00-.328-.776 2.806 2.806 0 00-.429-.617 1.965 1.965 0 00-.586-.429 2.39 2.39 0 00-.803-.206l2.803-3.638h-1.184l-2.452 3.508h-.317v-3.508h-.985v3.508h-.318l-2.451-3.508h-1.185zm10.03 0v7.907h1.091l2.475-3.941c.274-.436.536-.878.79-1.326.254-.447.481-.889.676-1.326l.035.013c-.027.33-.046.66-.06.99-.014.333-.021.68-.027 1.042-.004.364-.007.757-.007 1.181v3.367h.963v-7.907h-1.021l-2.557 4.071c-.287.468-.554.919-.798 1.353a20.58 20.58 0 00-.657 1.263l-.035-.011c.023-.35.041-.704.055-1.06.013-.356.023-.722.031-1.099.006-.377.008-.772.008-1.184v-3.333h-.962z" fill="#1F1C21"/></svg>33.0335 38.2749C33.0317 37.6824 32.9476 37.143 32.7814 36.6543C32.6154 36.1637 32.3764 35.7409 32.0639 35.3853C31.7529 35.0278 31.3777 34.7518 30.9398 34.5584C30.5036 34.3643 30.0114 34.2647 29.4671 34.2631ZM29.4321 35.0956C29.7724 35.0978 30.0774 35.1584 30.3477 35.2799C30.6192 35.399 30.8536 35.5649 31.0552 35.7743C31.2567 35.9852 31.4248 36.2281 31.5576 36.5015C31.6908 36.7752 31.7904 37.0687 31.8567 37.3774C31.9211 37.6883 31.9545 38.0033 31.9545 38.3221C31.9545 38.7736 31.8979 39.198 31.7864 39.593C31.6745 39.988 31.5105 40.3355 31.2958 40.6367C31.0786 40.938 30.8145 41.1745 30.4996 41.3467C30.1852 41.5164 29.8252 41.6029 29.4205 41.607C29.0958 41.6045 28.8012 41.5482 28.5349 41.4364C28.269 41.3229 28.0343 41.1664 27.8293 40.9654C27.6237 40.7639 27.4515 40.5273 27.3127 40.2595C27.1721 39.9895 27.0662 39.6964 26.9943 39.3798C26.924 39.0633 26.8865 38.7342 26.8865 38.3924C26.8865 38.0465 26.9199 37.7102 26.9887 37.3871C27.0546 37.0646 27.1568 36.7637 27.2931 36.4862C27.4284 36.2103 27.5984 35.9677 27.8015 35.759C28.0049 35.5515 28.2437 35.3893 28.5155 35.2734C28.7871 35.1565 29.0918 35.0978 29.4321 35.0956ZM33.491 34.4034L36.1188 39.753C36.1656 39.8452 36.195 39.9252 36.2028 39.9977C36.2103 40.0695 36.195 40.1479 36.1541 40.2342C36.0897 40.377 36.0113 40.5273 35.9175 40.6817C35.8235 40.8383 35.7141 40.9826 35.5869 41.1198C35.4597 41.2567 35.3151 41.3661 35.1529 41.452C34.9904 41.5361 34.8066 41.5811 34.6054 41.5833C34.5179 41.5833 34.4435 41.581 34.3807 41.5751C34.3179 41.5695 34.2651 41.5595 34.2182 41.5482L34.1245 42.3807C34.1891 42.4042 34.2673 42.422 34.3588 42.4335C34.4526 42.4451 34.566 42.451 34.6991 42.451C35.0491 42.451 35.3722 42.3691 35.6653 42.2066C35.9582 42.0426 36.2322 41.8004 36.4822 41.4773C36.6232 41.2936 36.7603 41.0864 36.891 40.852C37.0241 40.617 37.1513 40.3689 37.2744 40.1051C37.3978 39.8411 37.5169 39.5711 37.6303 39.2974C37.7453 39.0217 37.855 38.7524 37.9609 38.4861L39.6265 34.4034H38.5468L37.3038 37.7589C37.21 38.0383 37.1238 38.2961 37.0453 38.5311C36.9675 38.7636 36.8928 38.9808 36.8225 39.1783H36.7875C36.6994 38.9499 36.6094 38.7205 36.5156 38.4902C36.4219 38.2611 36.3238 38.0287 36.2244 37.7943L34.6526 34.4034H33.491ZM45.7848 41.2429C45.646 41.3092 45.4876 41.3679 45.3079 41.417C45.1279 41.4657 44.9367 41.5032 44.7329 41.5301C44.5279 41.5579 44.3204 41.571 44.1076 41.571C43.468 41.5676 42.9227 41.4382 42.473 41.1801C42.0233 40.9223 41.679 40.5567 41.4405 40.0817C41.2024 39.6083 41.0824 39.0452 41.0808 38.3924C41.0824 37.8718 41.1568 37.4108 41.3018 37.0059C41.448 36.6034 41.6577 36.2609 41.9271 35.9834C42.1989 35.7037 42.5236 35.4928 42.9014 35.3478C43.2802 35.2034 43.7005 35.1312 44.1664 35.1312C44.4967 35.1331 44.7954 35.164 45.0632 35.2253C45.3317 35.2856 45.5601 35.364 45.7495 35.4593L46.0076 34.6262C45.9176 34.5775 45.787 34.5268 45.6167 34.4722C45.4467 34.419 45.2379 34.3725 44.9914 34.335C44.7426 34.2959 44.4555 34.2768 44.1305 34.2747C43.5152 34.2768 42.9561 34.3765 42.4511 34.574C41.9468 34.7715 41.5127 35.0531 41.1471 35.4187C40.7815 35.7843 40.4999 36.2218 40.3024 36.7284C40.1031 37.2368 40.0037 37.804 40.0012 38.4274C40.0052 39.0786 40.1031 39.6533 40.2965 40.1536C40.4902 40.6523 40.7618 41.0707 41.1143 41.4095C41.4643 41.7492 41.8749 42.0054 42.3474 42.1792C42.8189 42.3513 43.3349 42.4395 43.8964 42.4395C44.2186 42.4376 44.5142 42.4198 44.7842 42.3848C45.0536 42.3479 45.2926 42.3007 45.4957 42.2442C45.6988 42.1873 45.8614 42.1285 45.9845 42.0639L45.7848 41.2429ZM48.7756 42.3104H49.8081V35.2718H52.2253V34.4034H46.3713V35.2718H48.7756V42.3104ZM56.2951 34.2631C55.7655 34.2647 55.2767 34.3628 54.8327 34.5584C54.3871 34.7537 54.0021 35.0334 53.6737 35.3968C53.3449 35.7624 53.0912 36.1987 52.9109 36.7071C52.729 37.2174 52.6374 37.7861 52.6352 38.4161C52.6374 39.0158 52.723 39.5611 52.8952 40.0539C53.0674 40.5451 53.3099 40.9689 53.6249 41.3254C53.9399 41.6811 54.3152 41.9545 54.7486 42.1479C55.1827 42.3398 55.6617 42.4376 56.1898 42.4395C56.5945 42.4395 56.9814 42.3807 57.347 42.2654C57.7126 42.152 58.0495 41.9798 58.3542 41.7532C58.6592 41.5264 58.9254 41.247 59.1498 40.9108C59.3751 40.5764 59.551 40.1892 59.6738 39.7489C59.7969 39.3089 59.8597 38.8168 59.8613 38.2749C59.8597 37.6824 59.7757 37.143 59.6091 36.6543C59.4435 36.1637 59.2045 35.7409 58.892 35.3853C58.581 35.0278 58.2054 34.7518 57.7679 34.5584C57.3317 34.3643 56.8392 34.2647 56.2951 34.2631ZM56.2601 35.0956C56.6004 35.0978 56.9054 35.1584 57.1754 35.2799C57.4473 35.399 57.6817 35.5649 57.8832 35.7743C58.0848 35.9852 58.2529 36.2281 58.3857 36.5015C58.5188 36.7752 58.6185 37.0687 58.6845 37.3774C58.7491 37.6883 58.7826 38.0033 58.7826 38.3221C58.7826 38.7736 58.726 39.198 58.6145 39.593C58.5026 39.988 58.3385 40.3355 58.1239 40.6367C57.9067 40.938 57.6426 41.1745 57.3276 41.3467C57.0132 41.5164 56.6533 41.6029 56.2486 41.607C55.9239 41.6045 55.6289 41.5482 55.363 41.4364C55.097 41.3229 54.8621 41.1664 54.6571 40.9654C54.4518 40.7639 54.2796 40.5273 54.1408 40.2595C54.0002 39.9895 53.8943 39.6964 53.8224 39.3798C53.7521 39.0633 53.7146 38.7342 53.7146 38.3924C53.7146 38.0465 53.748 37.7102 53.8165 37.3871C53.8827 37.0646 53.9846 36.7637 54.1212 36.4862C54.2565 36.2103 54.4261 35.9677 54.6296 35.759C54.8327 35.5515 55.0718 35.3893 55.3436 35.2734C55.6152 35.1565 55.9198 35.0978 56.2601 35.0956ZM61.1869 42.2867C61.3572 42.3104 61.5759 42.3316 61.8419 42.3513C62.1081 42.3691 62.4191 42.3788 62.7706 42.3807C63.4162 42.3807 63.9637 42.322 64.4134 42.201C64.8646 42.0795 65.2246 41.8942 65.4924 41.642C65.6996 41.4542 65.8662 41.2292 65.9868 40.9654C66.1083 40.7011 66.1705 40.3983 66.173 40.058C66.1705 39.7648 66.1199 39.5048 66.0243 39.2795C65.9265 39.0552 65.7993 38.8593 65.6393 38.6993C65.4787 38.5368 65.3046 38.4061 65.1131 38.3043C64.9234 38.2024 64.7318 38.1305 64.5424 38.0874V38.0521C64.818 37.9524 65.0543 37.8155 65.254 37.6433C65.453 37.4712 65.6074 37.2721 65.7152 37.0452C65.8227 36.8183 65.8774 36.5759 65.8793 36.3156C65.8774 36.0046 65.8171 35.7312 65.6996 35.4987C65.5805 35.2659 65.4181 35.0725 65.2109 34.92C65.0524 34.7868 64.8706 34.6775 64.6656 34.5934C64.4599 34.5093 64.2234 34.4468 63.9596 34.4059C63.6937 34.3643 63.3909 34.3447 63.0522 34.3447C62.8156 34.3447 62.5831 34.3528 62.3544 34.3665C62.1253 34.3822 61.9122 34.4019 61.7131 34.4287C61.5116 34.4547 61.3375 34.4859 61.1869 34.5209V42.2867ZM62.2075 35.2015C62.2878 35.1818 62.3994 35.1665 62.5437 35.1525C62.6884 35.1387 62.8784 35.1312 63.1109 35.1312C63.4572 35.129 63.76 35.174 64.0162 35.2622C64.2746 35.35 64.4756 35.4887 64.6184 35.6806C64.7612 35.8699 64.8337 36.1165 64.8352 36.4215C64.8352 36.6777 64.7668 36.9065 64.6321 37.1077C64.4974 37.3071 64.3034 37.4655 64.0496 37.5805C63.7975 37.698 63.4921 37.7568 63.1347 37.7589H62.2075V35.2015ZM62.2075 38.5214H63.0522C63.3337 38.5214 63.5959 38.5508 63.8422 38.6096C64.0868 38.6683 64.3034 38.7599 64.4912 38.883C64.6787 39.0061 64.8256 39.1645 64.9315 39.358C65.0368 39.5495 65.0915 39.7805 65.0934 40.0464C65.0915 40.3314 65.0346 40.5745 64.9252 40.7714C64.8159 40.9689 64.6656 41.1279 64.4756 41.247C64.2837 41.366 64.069 41.452 63.8265 41.5048C63.5844 41.5579 63.3297 41.5851 63.0637 41.5833C62.8825 41.5833 62.72 41.5792 62.579 41.5735C62.4362 41.5654 62.3131 41.5539 62.2075 41.536V38.5214ZM72.8591 41.2429C72.7204 41.3092 72.5619 41.3679 72.3826 41.417C72.2023 41.4657 72.011 41.5032 71.8073 41.5301C71.6023 41.5579 71.3951 41.571 71.182 41.571C70.5423 41.5676 69.997 41.4382 69.5473 41.1801C69.0976 40.9223 68.7533 40.5567 68.5152 40.0817C68.2767 39.6083 68.157 39.0452 68.1552 38.3924C68.157 37.8718 68.2311 37.4108 68.3764 37.0059C68.5227 36.6034 68.732 36.2609 69.0017 35.9834C69.2733 35.7037 69.5979 35.4928 69.9757 35.3478C70.3545 35.2034 70.7748 35.1312 71.2407 35.1312C71.5713 35.1331 71.8701 35.164 72.1379 35.2253C72.406 35.2856 72.6347 35.364 72.8241 35.4593L73.0819 34.6262C72.9922 34.5775 72.8616 34.5268 72.691 34.4722C72.5213 34.419 72.3122 34.3725 72.0657 34.335C71.8169 34.2959 71.5298 34.2768 71.2051 34.2747C70.5895 34.2768 70.0304 34.3765 69.5254 34.574C69.0211 34.7715 68.587 35.0531 68.2214 35.4187C67.8558 35.7843 67.5742 36.2218 67.3767 36.7284C67.1777 37.2368 67.078 37.804 67.0758 38.4274C67.0796 39.0786 67.1777 39.6533 67.3711 40.1536C67.5646 40.6523 67.8361 41.0707 68.1886 41.4095C68.5386 41.7492 68.9492 42.0054 69.422 42.1792C69.8936 42.3513 70.4092 42.4395 70.9707 42.4395C71.2932 42.4376 71.5885 42.4198 71.8585 42.3848C72.1279 42.3479 72.3669 42.3007 72.5701 42.2442C72.7735 42.1873 72.9357 42.1285 73.0588 42.0639L72.8591 41.2429ZM74.3488 34.4034V42.3104H75.3694V38.6855H75.6981C76.0303 38.6855 76.3159 38.7286 76.5543 38.8127C76.7909 38.8986 76.9943 39.0177 77.1606 39.1742C77.3265 39.3286 77.4674 39.5145 77.5827 39.7298C77.7002 39.9445 77.8021 40.183 77.8918 40.4448C77.9662 40.6545 78.0405 40.8676 78.1146 41.0845C78.189 41.3035 78.2671 41.5164 78.349 41.726C78.4315 41.9332 78.5211 42.1285 78.6189 42.3104H79.7102C79.5983 42.076 79.4949 41.8373 79.4008 41.597C79.3071 41.3542 79.2174 41.1082 79.1274 40.8539C79.0377 40.5998 78.9415 40.3395 78.8418 40.0695C78.744 39.8017 78.6346 39.5536 78.5115 39.3252C78.3905 39.0961 78.2452 38.8927 78.0755 38.7149C77.9074 38.5368 77.7058 38.3883 77.4693 38.2708C77.2327 38.1533 76.9512 38.0733 76.6246 38.0287L79.6161 34.4034H78.3961L75.6862 37.9111H75.3694V34.4034H74.3488ZM80.7067 34.4034V42.3104H81.7976L84.2729 38.3686C84.5469 37.933 84.8091 37.4908 85.0629 37.0434C85.3175 36.5956 85.5441 36.154 85.7394 35.7174L85.7744 35.7296C85.7475 36.0599 85.7279 36.3899 85.7141 36.7202C85.7004 37.053 85.6929 37.4008 85.6869 37.7624C85.6829 38.1264 85.6807 38.5189 85.6807 38.9433V42.3104H86.6428V34.4034H85.6225L83.0651 38.4743C82.7776 38.9417 82.5117 39.393 82.267 39.827C82.0229 40.2595 81.8042 40.6817 81.6101 41.0904L81.5748 41.0789C81.5986 40.7289 81.6164 40.3748 81.6295 40.0189C81.6436 39.663 81.6533 39.2973 81.6614 38.9205C81.667 38.5427 81.6689 38.1477 81.6689 37.7355V34.4034H80.7067ZM92.5086 37.7589H89.4468V35.2603H92.6964V34.4034H88.4143V42.3104H92.8723V41.4542H89.4468V38.6036H92.5086V37.7589ZM158.84 34.4034V42.3104H159.872V38.6036H163.697V42.3104H164.729V34.4034H163.697V37.7118H159.872V34.4034H158.84ZM169.691 34.2631C169.161 34.2647 168.672 34.3628 168.228 34.5584C167.783 34.7537 167.397 35.0334 167.069 35.3968C166.74 35.7624 166.486 36.1987 166.306 36.7071C166.124 37.2174 166.033 37.7861 166.031 38.4161C166.033 39.0158 166.119 39.5611 166.291 40.0539C166.463 40.5451 166.705 40.9689 167.02 41.3254C167.335 41.6811 167.71 41.9545 168.144 42.1479C168.578 42.3398 169.057 42.4376 169.585 42.4395C169.99 42.4395 170.377 42.3807 170.743 42.2654C171.108 42.152 171.445 41.9798 171.749 41.7532C172.055 41.5264 172.321 41.247 172.545 40.9108C172.77 40.5764 172.947 40.1892 173.069 39.7489C173.192 39.3089 173.255 38.8168 173.257 38.2749C173.255 37.6824 173.171 37.143 173.005 36.6543C172.839 36.1637 172.6 35.7409 172.287 35.3853C171.976 35.0278 171.601 34.7518 171.163 34.5584C170.727 34.3643 170.235 34.2647 169.691 34.2631ZM169.655 35.0956C169.996 35.0978 170.301 35.1584 170.571 35.2799C170.843 35.399 171.077 35.5649 171.279 35.7743C171.48 35.9852 171.648 36.2281 171.781 36.5015C171.914 36.7752 172.014 37.0687 172.08 37.3774C172.144 37.6883 172.178 38.0033 172.178 38.3221C172.178 38.7736 172.121 39.198 172.01 39.593C171.898 39.988 171.734 40.3355 171.519 40.6367C171.302 40.938 171.038 41.1745 170.723 41.3467C170.409 41.5164 170.049 41.6029 169.644 41.607C169.319 41.6045 169.024 41.5482 168.759 41.4364C168.492 41.3229 168.258 41.1664 168.053 40.9654C167.847 40.7639 167.675 40.5273 167.536 40.2595C167.395 39.9895 167.29 39.6964 167.218 39.3798C167.147 39.0633 167.11 38.7342 167.11 38.3924C167.11 38.0465 167.143 37.7102 167.212 37.3871C167.278 37.0646 167.38 36.7637 167.516 36.4862C167.652 36.2103 167.822 35.9677 168.025 35.759C168.228 35.5515 168.467 35.3893 168.739 35.2734C169.011 35.1565 169.315 35.0978 169.655 35.0956ZM173.949 34.4034L176.741 38.0405C176.434 38.0793 176.17 38.1533 175.945 38.2652C175.722 38.3767 175.529 38.5189 175.367 38.6952C175.206 38.8714 175.065 39.0764 174.944 39.3089C174.825 39.542 174.715 39.8001 174.618 40.0817C174.534 40.3279 174.452 40.5764 174.372 40.8267C174.293 41.0767 174.209 41.3254 174.121 41.5735C174.033 41.8217 173.932 42.0679 173.82 42.3104H174.864C174.95 42.1326 175.028 41.9351 175.103 41.7198C175.175 41.5048 175.246 41.2895 175.312 41.0708C175.378 40.852 175.443 40.6464 175.509 40.457C175.601 40.1852 175.701 39.943 175.806 39.7236C175.914 39.5064 176.041 39.3211 176.19 39.1667C176.338 39.0121 176.522 38.8927 176.741 38.8105C176.958 38.7286 177.224 38.6855 177.539 38.6855H177.903V42.3104H178.888V38.6855H179.24C179.555 38.6855 179.82 38.7286 180.039 38.8105C180.256 38.8927 180.44 39.0121 180.589 39.1667C180.738 39.3211 180.864 39.5064 180.972 39.7236C181.077 39.943 181.178 40.1852 181.269 40.457C181.332 40.6464 181.395 40.852 181.461 41.0708C181.525 41.2895 181.595 41.5048 181.668 41.7198C181.742 41.9351 181.825 42.1326 181.914 42.3104H182.958C182.851 42.0679 182.753 41.8217 182.669 41.5735C182.585 41.3254 182.503 41.0748 182.427 40.8226C182.35 40.5704 182.269 40.3201 182.184 40.0695C182.087 39.7864 181.977 39.5283 181.856 39.2933C181.734 39.0592 181.592 38.8536 181.427 38.6758C181.263 38.5002 181.068 38.3574 180.841 38.2474C180.615 38.1402 180.346 38.0693 180.038 38.0405L182.841 34.4034H181.657L179.205 37.9111H178.888V34.4034H177.903V37.9111H177.585L175.134 34.4034H173.949ZM183.979 34.4034V42.3104H185.07L187.545 38.3686C187.819 37.933 188.081 37.4908 188.335 37.0434C188.589 36.5956 188.816 36.154 189.011 35.7174L189.046 35.7296C189.019 36.0599 189 36.3899 188.986 36.7202C188.972 37.053 188.965 37.4008 188.959 37.7624C188.955 38.1264 188.952 38.5189 188.952 38.9433V42.3104H189.915V34.4034H188.894L186.337 38.4743C186.05 38.9417 185.783 39.393 185.539 39.827C185.295 40.2595 185.076 40.6817 184.882 41.0904L184.847 41.0789C184.87 40.7289 184.888 40.3748 184.902 40.0189C184.915 39.663 184.925 39.2973 184.933 38.9205C184.939 38.5427 184.941 38.1477 184.941 37.7355V34.4034H183.979Z" fill="#1F1C21"/>
</svg>
