<svg width="17" height="23" fill="none" xmlns="http://www.w3.org/2000/svg"><path d="M1 9.167h1.154V1h8.654C13.692 1 16 3.333 16 6.25s-2.308 5.25-5.192 5.25H4.462v2.333h6.923v2.334H4.462V22H2.154v-5.833H1v-2.334h1.154V11.5H1V9.167zm9.808-5.834H4.462v5.834h6.346c.765 0 1.498-.308 2.04-.855a2.933 2.933 0 00.844-2.062c0-.774-.304-1.515-.845-2.062a2.868 2.868 0 00-2.04-.855z" fill="#000"/><path fill-rule="evenodd" clip-rule="evenodd" d="M1.654.5h9.154C13.974.5 16.5 3.062 16.5 6.25S13.974 12 10.808 12H4.962v1.333h6.923v3.334H4.962V22.5H1.654v-5.833H.5v-3.334h1.154V12H.5V8.667h1.154V.5zm1 1v8.167H1.5V11h1.154v3.333H1.5v1.334h1.154V21.5h1.308v-5.833h6.923v-1.334H3.962V11h6.846C13.41 11 15.5 8.896 15.5 6.25S13.411 1.5 10.808 1.5H2.654zm1.308 1.333h6.846c.9 0 1.76.362 2.395 1.003a3.435 3.435 0 010 4.828 3.369 3.369 0 01-2.395 1.003H3.962V2.833zm1 1v4.834h5.846c.63 0 1.236-.254 1.684-.706.448-.453.7-1.068.7-1.711s-.252-1.258-.7-1.71a2.369 2.369 0 00-1.684-.707H4.962z" fill="#000"/></svg>4 2.83333H10.8077C11.7071 2.83333 12.5686 3.19466 13.2029 3.83601C13.837 4.47717 14.1923 5.34562 14.1923 6.25C14.1923 7.15438 13.837 8.02283 13.2029 8.66399C12.5686 9.30534 11.7071 9.66667 10.8077 9.66667H3.96154V2.83333ZM4.96154 3.83333V8.66667H10.8077C11.4383 8.66667 12.0443 8.41341 12.4919 7.9608C12.9397 7.508 13.1923 6.89271 13.1923 6.25C13.1923 5.60729 12.9397 4.992 12.4919 4.5392C12.0443 4.08659 11.4383 3.83333 10.8077 3.83333H4.96154Z" fill="black"/>
</svg>
